# xmcd CD database file
#
# Track frame offsets:
#	150
#	18266
#	53256
#	95433
#	142674
#	201158
#	235384
#	279354
#
# Disc length: 4116 seconds
#
# Revision: 0
# Processed by: cddbd v1.5.1PL0 Copyright (c) Steve Scherf et al.
# Submitted via: CDex 1.50
#
DISCID=5c101208
DTITLE=Arden Wilken e David Hopkins - I suoni per rivitalizzarsi
DYEAR=1900
DGENRE=New Age
TTITLE0=Old smile
TTITLE1=The wolf and the ladyrinth
TTITLE2=Creation
TTITLE3=Inner fair
TTITLE4=Control
TTITLE5=Insomnia
TTITLE6=Going deeper
TTITLE7=The eagle
EXTD=
EXTT0=
EXTT1=
EXTT2=
EXTT3=
EXTT4=
EXTT5=
EXTT6=
EXTT7=
PLAYORDER=
